<svg xmlns="http://www.w3.org/2000/svg" viewBox="0 0 282.2 80"><defs><style>.cls-1{fill:#fff;}</style></defs><title>bankLogoLight</title><g id="Слой_2" data-name="Слой 2"><g id="Слой_1-2" data-name="Слой 1"><path class="cls-1" d="M25.68,0c5.45,0,7.16,3.9,8.59,7.8L49.45,49.36a.82.82,0,0,1-.46,1l-8.26,3.2a.8.8,0,0,1-1-.47c-.15-.4-3.2-8.85-3.54-9.79h-21l-3.57,9.79a.78.78,0,0,1-1,.47l-8.25-3.2a.82.82,0,0,1-.47-1C2.44,47.91,16.37,9.79,17.08,7.8,18.46,4,20.24,0,25.68,0M.79,69.32a.8.8,0,0,0-.79.81v9.05A.8.8,0,0,0,.79,80H50.57a.8.8,0,0,0,.79-.81V70.13a.8.8,0,0,0-.79-.81H.79M25.64,12.65,18.55,33.93H32.84L25.73,12.65Z"/><path class="cls-1" d="M219.3,43.37c0,2.57-1.42,4.25-4,4.25a10.75,10.75,0,0,1-3.23-.36V39.49a16.51,16.51,0,0,1,3.23-.24c2.66.1,4,1.34,4,4.11m5.37-.38c0-4.76-2.79-8-8.64-8a15.49,15.49,0,0,0-4,.5v-6.8a34.55,34.55,0,0,1,4.44-.26,51,51,0,0,1,5.82.33l.14-4a40,40,0,0,0-7.78-.79,37.92,37.92,0,0,0-8,1.09V50.32A23.74,23.74,0,0,0,215,51.81c6.38,0,9.7-3.39,9.7-8.82"/><path class="cls-1" d="M164.18,41.61c0,3.53-1.41,5.81-3.72,5.81a6.88,6.88,0,0,1-2.58-.41V36.4a5.4,5.4,0,0,1,2.83-.57c2.32,0,3.48,1.91,3.48,5.77m-17.64.12c0-3.86,1.16-5.89,3.48-5.89a5.4,5.4,0,0,1,2.83.57V47a6.86,6.86,0,0,1-2.59.41c-2.64,0-3.72-2.16-3.72-5.69m11.33,15.88v-6.9a7.85,7.85,0,0,0,4.06.93c4.28,0,7.42-3.55,7.42-10,0-7-3.13-10-8.27-10a6.7,6.7,0,0,0-3.22.64V24h-5v8.24a6.69,6.69,0,0,0-3.22-.64c-5.14,0-8.27,3.11-8.27,10.1,0,6.49,2.83,9.92,7.42,9.92a7.85,7.85,0,0,0,4.07-.93v6.9h5"/><path class="cls-1" d="M115,51.32V36.23a13.4,13.4,0,0,0-2.63-.24,13.86,13.86,0,0,0-2.67.24v7c0,5.6-1.53,7.37-5.58,8.51l-1.38-3a4.3,4.3,0,0,0,1.67-2.28c.28-.83.33-1.6.33-4.18V32.82a24.45,24.45,0,0,1,7.63-1.18A24.76,24.76,0,0,1,120,32.82V51.32Z"/><path class="cls-1" d="M181.69,47.26a7.51,7.51,0,0,1-2.71.47c-1.81,0-2.83-.71-2.83-2.56s1.29-2.58,3.8-2.58a5.27,5.27,0,0,1,1.49.19v1.38a12.13,12.13,0,0,0,.26,3.1m6.41,2.21a8.71,8.71,0,0,1-1.68-5.77V38.54c0-2.79-.32-3.82-1.06-4.84-1-1.44-2.73-2.06-5.88-2.06a26.39,26.39,0,0,0-6.49.77l.75,3.71a32.07,32.07,0,0,1,4-.37c3.34,0,3.73.49,3.73,3v.94a9.69,9.69,0,0,0-2.55-.34c-5,0-7.7,2.46-7.7,6.52,0,3.82,2.83,5.9,6.32,5.9a10.24,10.24,0,0,0,3.71-.67,9.66,9.66,0,0,0,1.76-1,5.19,5.19,0,0,0,1.92,1.62Z"/><path class="cls-1" d="M236.94,47.26a7.52,7.52,0,0,1-2.72.47c-1.81,0-2.83-.71-2.83-2.56s1.3-2.58,3.79-2.58a5.17,5.17,0,0,1,1.49.19v1.38a12.07,12.07,0,0,0,.26,3.1m6.41,2.21a8.68,8.68,0,0,1-1.68-5.77V38.54c0-2.79-.32-3.82-1.06-4.84-1-1.44-2.73-2.06-5.88-2.06a26.37,26.37,0,0,0-6.49.77l.75,3.71a32,32,0,0,1,4-.37c3.33,0,3.72.49,3.72,3v.94a9.64,9.64,0,0,0-2.55-.34c-5,0-7.7,2.46-7.7,6.52,0,3.82,2.84,5.9,6.31,5.9a10.23,10.23,0,0,0,3.71-.67,9.4,9.4,0,0,0,1.75-1,5.21,5.21,0,0,0,1.93,1.62Z"/><path class="cls-1" d="M134.19,44.67c0,1.9-.67,3.19-3.09,3.19a6.34,6.34,0,0,1-2.21-.3V42a8.88,8.88,0,0,1,2.21-.3c2.32,0,3.09,1.13,3.09,2.94M123.85,31.94l0,18.37a19.32,19.32,0,0,0,7.36,1.46c5.36,0,8.23-2.77,8.23-7.33,0-4.13-2.54-6.69-7.28-6.69a11.9,11.9,0,0,0-3.23.48V31.94Z"/><polygon class="cls-1" points="256.59 51.32 256.59 43.48 250.88 43.48 250.88 51.32 245.84 51.32 245.84 32.12 250.88 32.12 250.88 39.38 256.59 39.38 256.59 32.12 261.64 32.12 261.64 51.32 256.59 51.32"/><path class="cls-1" d="M276.69,51.32s-1.7-4.17-2.6-6c-.77-1.52-1-1.88-2.46-1.88H271v7.85h-5.07V32.12H271v7.26h.85c1.31,0,1.54-.45,2-1.47s.85-1.77,1.32-2.74A8.25,8.25,0,0,1,276.48,33a3.71,3.71,0,0,1,2.74-1.15,12.57,12.57,0,0,1,2.35,0l-.26,3.49a1.38,1.38,0,0,0-1.17.28c-.5.44-.76.84-1.62,2.72s-1.72,2.55-2.76,2.74v.09c1.56.37,2.25,1.41,3,2.92.67,1.33,3.43,7.21,3.43,7.21Z"/><path class="cls-1" d="M95.48,51.32h5.81L92.51,24.48a10.58,10.58,0,0,0-3.3-.5,7.54,7.54,0,0,0-2.85.5L77.05,51.32h5.57S83.37,49,84.28,46h9.63l1.57,5.27M85.7,41.55s1.61-5.38,1.85-6.22c.65-2.19,1.62-5.64,1.62-5.64h.16s.9,3.57,1.48,5.6c.23.79,1.76,6.25,1.76,6.25Z"/><path class="cls-1" d="M199.77,41.72a3.22,3.22,0,1,1-3.22-3.22,3.22,3.22,0,0,1,3.22,3.22"/></g></g></svg>