<svg xmlns="http://www.w3.org/2000/svg" viewBox="0 0 347.48 75.43"><defs><style>.cls-1,.cls-2{fill:#fff;}.cls-2{fill-rule:evenodd;}</style></defs><title>bankLogoLight</title><g id="Слой_2" data-name="Слой 2"><g id="Слой_1-2" data-name="Слой 1"><path class="cls-1" d="M125.83,42.71c.31-.49.63-1,1-1.45h.2V52.12h4.93V33.68H127l-5.52,8.41q-.47.72-.93,1.39c-.31.45-.62.93-.93,1.43h-.2V33.68h-4.93V52.12h4.93q1.39-1.92,2.72-3.94t2.69-4c.36-.5.7-1,1-1.49"/><polygon class="cls-1" points="141.51 44.47 148.85 44.47 148.85 52.12 153.79 52.12 153.79 33.68 148.85 33.68 148.85 40.7 141.51 40.7 141.51 33.68 136.58 33.68 136.58 52.12 141.51 52.12 141.51 44.47"/><path class="cls-1" d="M174.16,46.21a5.32,5.32,0,0,0-2-4.4,8.23,8.23,0,0,0-5.26-1.56h-3.56V33.68h-4.94V52.12h8.71a8.39,8.39,0,0,0,5.1-1.41,5.23,5.23,0,0,0,1.91-4.5m-5.67,1.69a3.24,3.24,0,0,1-1.93.53h-3.19V43.9h3.15a3.16,3.16,0,0,1,2,.57,2,2,0,0,1,.73,1.7,2,2,0,0,1-.73,1.73"/><path class="cls-1" d="M237.64,49.71a9,9,0,0,0,2.05-3,9.9,9.9,0,0,0,.76-4,9.37,9.37,0,0,0-.74-3.77,8.76,8.76,0,0,0-2-2.92,9.4,9.4,0,0,0-3.09-1.92,12.67,12.67,0,0,0-3.89-.81V26.41l-4.63,1.77v5.16a12,12,0,0,0-3.86.85,10.29,10.29,0,0,0-3.13,2,8.83,8.83,0,0,0-2.83,6.61,10.69,10.69,0,0,0,.7,4,8.55,8.55,0,0,0,2,3,9.08,9.08,0,0,0,3.11,2,13,13,0,0,0,4,.81v7.81l4.67-1.77V52.5a12,12,0,0,0,3.83-.83,9.47,9.47,0,0,0,3.07-2m-11.57-.83a6,6,0,0,1-2-.49,4.94,4.94,0,0,1-1.63-1.17,5.55,5.55,0,0,1-1.11-1.83,7,7,0,0,1-.41-2.51,6.21,6.21,0,0,1,1.34-4.05A5.17,5.17,0,0,1,226.07,37Zm6.54-.45a5.54,5.54,0,0,1-1.91.49V37a5.05,5.05,0,0,1,3.74,1.83,6.3,6.3,0,0,1,1.31,4.05,6.89,6.89,0,0,1-.43,2.53,5.71,5.71,0,0,1-1.12,1.85,5,5,0,0,1-1.6,1.17"/><path class="cls-1" d="M266.49,46.73a9.85,9.85,0,0,0,.75-4,9.38,9.38,0,0,0-.74-3.77,8.74,8.74,0,0,0-2-2.92,9.41,9.41,0,0,0-3.1-1.92,12.61,12.61,0,0,0-3.89-.81V26.41l-4.63,1.77v5.16a11.94,11.94,0,0,0-3.87.85,10.23,10.23,0,0,0-3.13,2A8.82,8.82,0,0,0,243,42.77a10.59,10.59,0,0,0,.7,4,8.54,8.54,0,0,0,2,3,9.06,9.06,0,0,0,3.11,2,13,13,0,0,0,4,.81v7.81l4.67-1.77V52.5a12,12,0,0,0,3.83-.83,9.54,9.54,0,0,0,3.08-2,9,9,0,0,0,2.05-3m-13.62,2.15a6,6,0,0,1-2-.49,4.94,4.94,0,0,1-1.63-1.17,5.51,5.51,0,0,1-1.11-1.83,7,7,0,0,1-.41-2.51,6.21,6.21,0,0,1,1.34-4.06A5.17,5.17,0,0,1,252.87,37Zm9.25-3.47A5.82,5.82,0,0,1,261,47.26a5,5,0,0,1-1.6,1.17,5.56,5.56,0,0,1-1.91.49V37a5.06,5.06,0,0,1,3.74,1.83,6.3,6.3,0,0,1,1.31,4.06,6.9,6.9,0,0,1-.42,2.53"/><polygon class="cls-1" points="94.49 30.14 101.67 30.14 101.67 52.14 106.8 52.14 106.8 30.14 113.75 30.14 113.75 25.84 94.49 25.84 94.49 30.14"/><polygon class="cls-1" points="194.69 33.78 189.07 33.78 182.46 41.61 182.46 33.68 177.56 33.68 177.56 52.14 182.46 52.14 182.46 43.16 188.91 52.14 194.73 52.14 187.47 42.26 194.69 33.78"/><path class="cls-1" d="M211.14,35.93A7.85,7.85,0,0,0,208.3,34,10.39,10.39,0,0,0,201,34a8.23,8.23,0,0,0-2.87,1.89,8.45,8.45,0,0,0-1.86,3,12.71,12.71,0,0,0,0,8,8.62,8.62,0,0,0,1.8,3,8,8,0,0,0,2.81,1.93,9.66,9.66,0,0,0,3.7.68,9.86,9.86,0,0,0,3.64-.66,8.09,8.09,0,0,0,2.87-1.9A8.77,8.77,0,0,0,213,47a12.29,12.29,0,0,0,0-8,8.72,8.72,0,0,0-1.84-3m-2.71,9.24a6.14,6.14,0,0,1-.78,1.79,3.72,3.72,0,0,1-1.27,1.21,3.43,3.43,0,0,1-1.74.43,3.51,3.51,0,0,1-3-1.49,7.2,7.2,0,0,1-1.06-4.21,7.3,7.3,0,0,1,1-4,3.31,3.31,0,0,1,3-1.59,3.53,3.53,0,0,1,3.12,1.57A7.18,7.18,0,0,1,208.71,43a8.39,8.39,0,0,1-.27,2.18"/><path class="cls-1" d="M284.88,37.83a8.91,8.91,0,0,1,5.87,1.77A6.58,6.58,0,0,1,292.89,45a6.76,6.76,0,0,1-2.08,5.32A8.44,8.44,0,0,1,285,52.14H274.91V27.56h15.67v2.61H277.67v7.66Zm5.21,7.12a4.37,4.37,0,0,0-1.34-3.4A5.31,5.31,0,0,0,285,40.32h-7.36v9.21H285a5.47,5.47,0,0,0,3.74-1.17A4.32,4.32,0,0,0,290.09,44.95Z"/><path class="cls-1" d="M303.68,33.37a7.3,7.3,0,0,1,4.93,1.49,5.61,5.61,0,0,1,1.72,4.47v12.8h-2.68V50.33h-.08a7.58,7.58,0,0,1-2.93,1.74,10.09,10.09,0,0,1-2.77.41,7.77,7.77,0,0,1-2.19-.32,5.83,5.83,0,0,1-2-1,5.18,5.18,0,0,1-1.43-1.79,5.92,5.92,0,0,1-.55-2.67,5.71,5.71,0,0,1,.51-2.45,5.33,5.33,0,0,1,1.43-1.86,6.56,6.56,0,0,1,2.19-1.19,8.88,8.88,0,0,1,2.78-.41,12.59,12.59,0,0,1,2.44.24,9.1,9.1,0,0,1,2.59,1V39.71a4,4,0,0,0-1.07-3.1,4.65,4.65,0,0,0-3.21-1,9,9,0,0,0-2.52.34,14.65,14.65,0,0,0-2.33.91l-.91-2.1a16,16,0,0,1,2.79-1A12.86,12.86,0,0,1,303.68,33.37Zm4,10.87a12.73,12.73,0,0,0-2.26-1,8.59,8.59,0,0,0-2.71-.38,4.82,4.82,0,0,0-3,1,3.3,3.3,0,0,0-1.24,2.77,3.51,3.51,0,0,0,1.05,2.76,4.42,4.42,0,0,0,3,.94,6.56,6.56,0,0,0,2.8-.79,9.9,9.9,0,0,0,2.35-1.74Z"/><path class="cls-1" d="M326.83,52.14V43.64h-9.67v8.49h-2.68V33.68h2.68V41.3h9.67V33.68h2.68V52.14Z"/><path class="cls-1" d="M347.26,33.75l-8.34,8.5,8.57,9.89h-3.21l-8-9.4v9.4h-2.68V33.68h2.68v8.23l7.93-8.16Z"/><path class="cls-2" d="M23.2,55.13c1.12-.89,2-1.34,2-3.49-1.68.86-6.47.81-8.46-1.94-.56-.78,0-1.17.58-.56,1.37,1.55,3.9.85,4.82.4a3.64,3.64,0,0,0-.9-1.52c.35-.34,1.32-.85,1.52-1.72a12.2,12.2,0,0,0-2.55-.49,1.75,1.75,0,0,0,.49-1.91c-2.07.64-4.63-.23-5.21-1s0-1.46.49-1c1,1.09,6.12,2.33,8,.44a2.82,2.82,0,0,1-1.62-1.21c1.75-.18,3.15-1.21,3.26-2.5-1,0-2.8-.07-3.42-.54a2.15,2.15,0,0,0,1.63-1.55c-3.2-.19-3.46-2.57-3.47-3,2.09,1.2,5.76.67,4.81-2.29-1.73-.09-3.48-2.9,1.29-5.48,4.34-2.35,9.27-4.88,8.84-9C35,14.14,30.64,12.32,30.09,11c-1.83.87-2.2,1.88-1.38,3.58,0,0-4.08.41-4.4-2.11a3.84,3.84,0,0,1,1.42-3c-.46,0-3.53-.82-4.46,1.68-1.73-1.18-3.2-1.13-4.36.11,1.85,1.1,3,4.88,6.07,6-2.18,1.18-5.71.69-7.76-2.94-1.95,2.93-3.07,5.84,1.11,8.94C8.71,26.69,8.77,33.3,2.16,36.44,2.83,38.25,4.24,38.25,6,38c-2.86,3.71-.42,7.6-4.95,9.19.42,1.51,1.27,2.72,2.94,2.28-.48.74-.79.72-1.53,1.54C5,52.53,7.92,51.4,8.58,46.4c.12-.89,1.35-.33.92.54-2.82,5.83,4.31,10.21,1.79,14.49,2.23-.09,3.92-.27,4.85-1a4.8,4.8,0,0,1,.63,2.66,2,2,0,0,0,1.76-1.81c.81,2.34,3.68,4.85,8.29,4.85-2.44-3.48-.17-7-3.62-11m-4.55,4.3-1,1.67A21.44,21.44,0,0,0,16.26,58c-.79,1.63-2,1.66-3.24,1.67.27-3.9-4.63-7.83-2.48-12.28A1.81,1.81,0,0,0,9.76,45C6.48,43.32,8,50.25,4.71,50.46a8.77,8.77,0,0,0,1-2.57c-.7.18-2.37,1.25-3.13-.12a5.41,5.41,0,0,0,2.77-4.2,16.11,16.11,0,0,1,.95-3.75,21,21,0,0,1,2.44-3.44c-.33.05-4,.83-4.86.44,6.39-3.93,5-8.92,14.7-13.37-2.56-1.9-5.17-3.41-3.3-7,2.67,3.21,7.75,2.1,10.49.61-2.71-.54-6.2-2.93-7-5.58,1-.16,2.34.95,3.11,1.47.37-1,.51-2.12,1.7-2.37-1.58,3.39,1.55,5.16,4.53,5.17.46,0,2.39-.19,2.39-.19-.31-.64-1.56-2.37-.65-3.07.73.69,1.6,1.23,2.39,1.84C38,18.78,29.44,23,25.93,24.84c-5.5,3-4,6.51-1.73,7.41,0,.4-.26.58-.64.7-1.61.54-3.12-.61-4.4-1.34.08,2.22-.07,4.35,2.38,5.57l-1.69.62c1.45,1.1,1.89,1.69,3.64,1.92a7.92,7.92,0,0,1-2.7.47,6.47,6.47,0,0,0,.86,2c-3.58.42-5-1.62-6.12-1.53-2.36.18-2.22,4.62,3.6,4.63l-.6,1a6.62,6.62,0,0,0,2.11.77c-.39.31-.76.73-1.08,1.06l.93.8c-2.37.43-3-2.1-4.58-.88-2.35,1.86,2.83,5.79,7.79,5.2a16.16,16.16,0,0,1-2.09,1.73c4,3.82,2,7.42,3.71,10.05a7.32,7.32,0,0,1-6.67-5.56"/><path class="cls-2" d="M12.27,45.49c.84.88,1.86,1,3.79.84-2.12-.26-3.31-.77-4-2.18a20.58,20.58,0,0,1-.21-2.33A16.19,16.19,0,0,1,14,34a5.45,5.45,0,0,0,4.67,5.17c-2.9-1.27-4.61-4.13-3.68-6.89.61-1,1.29-2,2-3,.38-.49.76-1,1.12-1.4-.39,1.41,1.32,2.87,2.46,3.11-.62-.6-1.95-2.57,1.12-5.85a14,14,0,0,0-2.52,1.54c5.57-6,10.15-6.19,12.26-9.22-3,2.08-11.12,3.21-14.74,2.22,2,1.34,6.82,1.22,8,1-3.93,3.82-12.52,7.77-14,11.29A10,10,0,0,1,16,28.68a34.91,34.91,0,0,0-3.6,6.17c-2.28,5-5.34,5-5.54,9.12,1-3.17,3.16-4,4.62-6.06a20.45,20.45,0,0,0-.33,4.51,14,14,0,0,0,1,4.93c-.15,2,0,5.48,2.35,7.76a10.46,10.46,0,0,1-1.77-6.5c1.81,3.5,7,8.34,9.5,11.59-2.5-4.18-8.64-9.07-10-14.71"/><path class="cls-2" d="M69.57,28.68A10,10,0,0,1,74.82,32c-1.48-3.51-10.08-7.46-14-11.29,1.18.25,6,.37,8-1-3.62,1-11.69-.14-14.74-2.22,2.11,3,6.68,3.2,12.26,9.22a13.92,13.92,0,0,0-2.52-1.54c3.06,3.28,1.74,5.24,1.12,5.85,1.14-.24,2.85-1.7,2.46-3.11.37.44.74.91,1.12,1.4.77,1,1.44,2,2,3,.93,2.76-.78,5.62-3.68,6.89A5.44,5.44,0,0,0,71.54,34a16.13,16.13,0,0,1,2.21,7.8,20.58,20.58,0,0,1-.21,2.33c-.74,1.41-1.93,1.93-4,2.18,1.93.12,2.94,0,3.79-.84C72,51.13,65.83,56,63.33,60.2c2.5-3.25,7.68-8.09,9.5-11.59a10.47,10.47,0,0,1-1.77,6.5c2.31-2.28,2.5-5.73,2.35-7.76a14.18,14.18,0,0,0,1-4.93,20,20,0,0,0-.33-4.51C75.54,40,77.66,40.79,78.7,44c-.2-4.09-3.25-4.16-5.54-9.12a34.58,34.58,0,0,0-3.59-6.17"/><path class="cls-2" d="M79.51,38c1.8.28,3.21.28,3.88-1.52-6.61-3.15-6.55-9.76-14.15-13.21,4.18-3.1,3.05-6,1.11-8.94-2.06,3.63-5.59,4.13-7.76,2.95,3.06-1.12,4.21-4.89,6.07-6C67.49,10,66,10,64.29,11.14c-.94-2.51-4-1.68-4.46-1.68a3.85,3.85,0,0,1,1.42,3c-.32,2.51-4.4,2.11-4.4,2.11.82-1.7.46-2.71-1.38-3.58-.56,1.35-4.95,3.17-5.23,5.83-.44,4.17,4.5,6.7,8.83,9,4.77,2.58,3,5.39,1.29,5.48-1,3,2.72,3.5,4.8,2.29,0,.39-.27,2.77-3.48,3a2.17,2.17,0,0,0,1.64,1.56c-.63.47-2.45.54-3.42.54C60,40,61.42,41,63.17,41.18a2.81,2.81,0,0,1-1.62,1.21c1.89,1.89,7,.64,8-.44.47-.5,1.05.21.49,1s-3.14,1.63-5.21,1a1.76,1.76,0,0,0,.49,1.91,12.19,12.19,0,0,0-2.55.49c.2.87,1.18,1.38,1.53,1.72a3.66,3.66,0,0,0-.9,1.52c.93.45,3.46,1.15,4.82-.4.55-.62,1.15-.22.59.56-2,2.75-6.78,2.79-8.47,1.94,0,2.15.88,2.6,2,3.49-3.45,4-1.17,7.51-3.62,11,4.6,0,7.48-2.51,8.29-4.85a2,2,0,0,0,1.76,1.81,4.88,4.88,0,0,1,.62-2.66c.93.75,2.63.92,4.85,1-2.52-4.28,4.61-8.66,1.79-14.49-.42-.88.81-1.43.93-.54.66,5,3.6,6.12,6.07,4.57-.75-.81-1.05-.8-1.53-1.54,1.67.44,2.52-.77,2.94-2.28-4.52-1.59-2.09-5.47-4.95-9.19m.38,9.92a8.45,8.45,0,0,0,1,2.58c-3.29-.21-1.76-7.14-5.05-5.47A1.81,1.81,0,0,0,75,47.44c2.15,4.45-2.75,8.38-2.48,12.28-1.21,0-2.47,0-3.25-1.67a21.62,21.62,0,0,0-1.4,3.06l-1-1.67A7.33,7.33,0,0,1,60.23,65c1.65-2.63-.33-6.23,3.71-10.05a15.9,15.9,0,0,1-2.09-1.73c5,.59,10.14-3.34,7.79-5.2-1.54-1.22-2.21,1.31-4.58.88l.93-.8c-.32-.32-.7-.74-1.09-1.06A6.58,6.58,0,0,0,67,46.27l-.6-1c5.81,0,6-4.45,3.6-4.63-1.11-.08-2.54,2-6.12,1.54a6.72,6.72,0,0,0,.86-2,7.94,7.94,0,0,1-2.7-.47c1.75-.23,2.19-.81,3.64-1.92L64,37.18c2.45-1.22,2.3-3.35,2.37-5.57-1.28.74-2.79,1.88-4.39,1.34-.38-.12-.63-.3-.64-.7,2.3-.91,3.76-4.44-1.73-7.41-3.5-1.89-12.07-6.06-6.27-10.55.79-.61,1.66-1.15,2.39-1.84.91.7-.33,2.44-.65,3.07,0,0,1.93.19,2.39.19,3,0,6.13-1.78,4.54-5.17,1.19.25,1.33,1.39,1.69,2.37.76-.52,2.09-1.62,3.11-1.47-.83,2.66-4.32,5-7,5.58,2.74,1.49,7.82,2.6,10.48-.61,1.88,3.63-.74,5.14-3.3,7,9.75,4.45,8.31,9.44,14.71,13.37-.83.39-4.53-.39-4.86-.44a20.68,20.68,0,0,1,2.45,3.44,16.25,16.25,0,0,1,.94,3.75A5.43,5.43,0,0,0,83,47.77c-.75,1.36-2.42.3-3.11.12"/><path class="cls-2" d="M33.45,58.81l1.39-1.18-.21-.42c-.15-.3-.07-.32.09-.44l.73-.55a.58.58,0,0,1,.56-.07l2.2.52H35.89a.89.89,0,0,0-.89.64l-.16.33-.6,1.23a1.39,1.39,0,0,0,.22,1.62l.42.5L34,62.72h.72l.59-1.21a3.91,3.91,0,0,0,1.11-1.67c-.25-.2-.43-.35-.29-.64l.27-.57c.09-.19.12-.27.37-.22l2.31.5a.8.8,0,0,0,1-.26c.32-.49.36-.43,1.1-.36l1.18.12a6.22,6.22,0,0,0,3.85-.75,15.11,15.11,0,0,0,.86,1.27c.07.14,0,.35-.15.6l-1.32,3.17h2l1.16-2.89a1.66,1.66,0,0,1,.38-.6l-.66,3.49h2l.53-3.46c.12-.77,0-1-.32-1.33-.83-.7-.81-2.16-1.08-3.05a.79.79,0,0,1,.5-.1c.43,0,.76,1.15,1.27,1.85,1,1.43,2.4,3,4,.78a5.15,5.15,0,0,0-.51-.7l-.44-.52c-.26-.29-1.49-1.69-2-2.2a3,3,0,0,0-3.66-.42c-1.61-.84-3.31,0-3.72,0l-2.78-.17a.55.55,0,0,1-.45-.27l.51-.17c-.48-2-1.7-3.7-3.82-4,0,0-.12-.64-.45-.76l-.63.75a2.09,2.09,0,0,0-.53.15l-2.71-1,2,2.05s-1.05,1.49-1.35,1.8a.55.55,0,0,0,0,.77l.4.52c.21.27.43.26.75.09l.45-.23c.19-.16.85.16,1.12-.1a8.2,8.2,0,0,0-.31,1.59l-1.82-.22a.93.93,0,0,0-.83.19l-1.55,1.2a1.35,1.35,0,0,0-.35,1.72Zm15.07.35-1.24,3h-.77l1.23-2.95c.13-.38-.11-.56-.42-1a9,9,0,0,0,1.34.64,1.5,1.5,0,0,0-.15.24M36.6,52.55l-.35.19c-.24.14-.37.21-.58-.06l-.15-.19a.4.4,0,0,1,.06-.49l1.52-1.77-1.4-1.15,1.78.66.65-.81c.19.16.12.63.12.63a3.62,3.62,0,0,1,2.9,3.65,1.73,1.73,0,0,0,1.08.74l3.08.19c.51,0,1.79-1,3.43-.05a3.28,3.28,0,0,1,1.32-.5,4,4,0,0,1,3.31,1.92c.58.74,1.37,1.86,1.37,1.86-.34.41-.68.54-1,.44a1.42,1.42,0,0,1-.7-1,3.37,3.37,0,0,0-1-1.4A6.5,6.5,0,0,1,52.5,57c-1.2-1.19-1.43-2.65-2.28-2.85a1.24,1.24,0,0,0-1.21.53c.43,1,.41,2.13.84,2.89.33.57.4.62.55.75.36.26.15.71.1,1L50,62.2h-.77l.51-2.8c.15-.85-2.24-.85-3.47-2.48-1,1.22-4,.91-5.25.72a1.13,1.13,0,0,0-1.29.46c-.16.28-.44.2-.61.16l-2.31-.5a.55.55,0,0,0-.76.36l-.46,1a.43.43,0,0,0,.09.57l.22.24a1.9,1.9,0,0,1-.55.81l-.51-.57A1,1,0,0,1,34.81,59l.75-1.56a.6.6,0,0,1,.56-.36L39,57l-.88-1.43c-.65-1.07.43-3,.27-3.88-.08,1.21-1.54.66-1.77.82m-3.11,3.6,1.36-1a.84.84,0,0,1,.67-.26l1.91.25a3.12,3.12,0,0,0,.41.91l-2-.43a.7.7,0,0,0-.64.17l-1,.73a.48.48,0,0,0-.09.62l.16.34L33.6,58l-.26-.49c-.26-.52-.28-1,.15-1.32"/><path class="cls-2" d="M39.39,19.41a14.23,14.23,0,0,0,2.06,1.06v-.87l-2.89-1.11s0,.35.84.92"/><path class="cls-2" d="M41.45,18.35v-.87l-3.28-1.17a8,8,0,0,0,1.23,1,13.94,13.94,0,0,0,2.06,1.05"/><path class="cls-2" d="M41.45,16.38V15.5l-3.59-1.32s.7.57,1.54,1.14a14.21,14.21,0,0,0,2.06,1.06"/><path class="cls-2" d="M51.54,28.28h3.68a1.71,1.71,0,0,0-1.8-1.07,2.07,2.07,0,0,0-1.88,1.07"/><path class="cls-2" d="M47.69,14.18,44.11,15.5v.88a13.82,13.82,0,0,0,2.05-1.06c.84-.57,1.53-1.14,1.53-1.14"/><path class="cls-2" d="M47,18.49l-2.89,1.11v.87a14.24,14.24,0,0,0,2.05-1.06c.84-.57.84-.92.84-.92"/><path class="cls-2" d="M47.39,16.31l-3.28,1.17v.87a13.78,13.78,0,0,0,2.05-1.05,8,8,0,0,0,1.22-1"/><path class="cls-2" d="M32.13,27.21a1.7,1.7,0,0,0-1.79,1.07H34a2.08,2.08,0,0,0-1.88-1.07"/><path class="cls-2" d="M50.07,11.83c0-2.07-3.47-3.92-7.3-3.92s-7.3,1.85-7.3,3.92l.08.5,1.52,8.78-7.24,4.22a4.32,4.32,0,0,0-1.86,3H29.3a2.94,2.94,0,0,1,3.06-2.56C34,25.81,35,26.83,36,28.28l.25.38.36.57H26a11.5,11.5,0,0,1,1.53,5V56.41c0,5.69,4.38,8.4,9.11,8.4,3.66,0,4.15-.16,6.17,1.85,2-2,2.5-1.85,6.17-1.85,4.74,0,9.11-2.71,9.11-8.4V34.28a11.47,11.47,0,0,1,1.52-5H48.93l.37-.57.25-.38c1-1.45,2-2.47,3.64-2.56a2.94,2.94,0,0,1,3.05,2.56h1.32a4.32,4.32,0,0,0-1.86-3l-7.24-4.22L50,12.33ZM37,12.84l5.4,1.84v8.45l-4-2.09Zm1.32,17.93a5.3,5.3,0,0,0,3.23,2,2.77,2.77,0,0,0,.94,1.53,2.72,2.72,0,0,0,2,3.29,2.13,2.13,0,0,0,1.45,1.63l-1.13,1.3a1.65,1.65,0,0,1-1.46.6l-5-.57c.22-.56-.36-1.21-2-.93l2-5.54-1.21-2.58-2.29,2-.17,5.82-1-.48c-1.28-.55-1.66,1.76-.44,1.77h.48a.55.55,0,0,0,.23.58.39.39,0,0,0,0,.68.48.48,0,0,0-.1.77,1.05,1.05,0,0,0,.59,1.59c.72.19,1.18-.59,1.33-1l7.85,2.43a2.67,2.67,0,0,0,2.83-.67l2-1.79a2.13,2.13,0,0,0,1.05,2.58,10.63,10.63,0,0,0-.09,1.52H29V34.28a10.2,10.2,0,0,0-.76-3.51Zm8.44,4.9a2.66,2.66,0,0,0,.12,2.64l-.34.33c-1.47-.18-2.05-2.38-2.05-2.38a3.73,3.73,0,0,0,0,.58A2.06,2.06,0,0,1,43,34.71a3.47,3.47,0,0,0,1.08.38l.1-.64a2.24,2.24,0,0,1-1.86-1.58l-.14,0c.18,0,.36,0,.55,0a6.14,6.14,0,0,0,1.73-.25,2.84,2.84,0,0,0,1.95,1.13,3.12,3.12,0,0,0,.26,1.91m2.18,5.81a2.21,2.21,0,0,0-.35.68l-.82.76a4,4,0,0,0-1.38-3.2l.88-.86.17.17a2,2,0,0,0,1.5,2.45m-4-.38.67-.66a3.68,3.68,0,0,1,1.31,3.22l-.74.67a2.57,2.57,0,0,1-.47.36,4,4,0,0,0-.78-3.59m-1.46.56h0a1.41,1.41,0,0,0,.75-.1,3.69,3.69,0,0,1,.3,3.46,3.66,3.66,0,0,1-1-.15l-.26-.08a4.45,4.45,0,0,0,.2-3.13m-1.71-.21,1,.12a4.67,4.67,0,0,1-.45,2.94l-1.11-.32a4.55,4.55,0,0,0,.61-2.74m-2-.24,1.16.14A4.57,4.57,0,0,1,40.4,44l-1.18-.34a3.79,3.79,0,0,0,.56-2.42m-4.68-.31a.52.52,0,0,1-.75-.54,1.81,1.81,0,0,1,1.83.06c.28.18.52.69.9,1a8.61,8.61,0,0,1-.35,1.48A1.13,1.13,0,0,1,36,41.08a.72.72,0,0,0-.9-.19M34.36,43a2.54,2.54,0,0,0,.73.17.42.42,0,0,1-.49.38.39.39,0,0,1-.23-.55m-1.06-3.09a.31.31,0,0,1,.15-.57c.32,0,.76.38,1.19.56a4.13,4.13,0,0,1-1.34,0m1.1,2.24c.23.22.93.14.93.14l0,.14c-.31.41-1.15.22-1-.28m.94-.47c-.5.2-1-.07-.85-.4.23.21.88.11.88.11Zm.73-5.81-1,3.49.33-5.62,1.48-1.27.75,1.65-1.9,5.46.5-3.68c0-.26-.16-.28-.2,0m.07,4.23a6,6,0,0,1,1.36.06c.22.09.07.46-.21.42a6.07,6.07,0,0,1-1.15-.49m1.67.85L39,41.1a3.84,3.84,0,0,1-.49,2.31l-1.12-.33A7.19,7.19,0,0,0,37.81,41M56.53,56.41a6.38,6.38,0,0,1-3.31,5.87L54,60.78h-.72l-1,1.93a9.37,9.37,0,0,1-3.34.58c-3.78,0-4.77.15-6.17,1.55-1.4-1.39-2.4-1.55-6.17-1.55a9.51,9.51,0,0,1-3.33-.57h0l1-1.94h-.72l-.84,1.7c-.2-.09-.39-.2-.58-.31l.69-1.39h-.71l-.51,1A6.45,6.45,0,0,1,29,56.41V47.95h27.5Zm.77-25.64a10,10,0,0,0-.77,3.51V47.19H55a8.77,8.77,0,0,1-1.26-2.86,3.58,3.58,0,0,0,.45,2.86H52.29a11.31,11.31,0,0,1-.89-2.94c-.58.66-.21,2.44.15,2.94H50.26a6.48,6.48,0,0,1,.18-1.92c-.67-.12-1.39-.48-1.38-1.23a1,1,0,0,0,.95.31l.55-.43c-1.81.06-1.89-1.93-.46-2.86-1.43,0-2.51-.81-2-2.33a2.1,2.1,0,0,1-.63-3,2.57,2.57,0,0,1-.29-2.55,2.84,2.84,0,0,1-2-.78l-.11,0a5,5,0,0,0,2.19-1.66Zm-5.47-6.21c-1.49.26-2.77,2.09-3.82,3.73l-.12.19H46.76v.19c-.12,1.27-1.32,3-4,3A4.36,4.36,0,0,1,40,30.77a3.27,3.27,0,0,1-1.07-1.53,2.67,2.67,0,0,1-.12-.57v-.19H37.68l-.12-.19c-1.06-1.64-2.34-3.47-3.82-3.73l4.06-2.35,5,2.71,5-2.71ZM47.17,21l-4,2.09V14.67l5.4-1.84Zm-4.39-7.28-5.9-2.33c.5-1.19,2.81-2.2,5.9-2.2s5.4,1,5.9,2.2Z"/><path class="cls-2" d="M55.9,39.11v-.65c-2,0-2.44-2.39-2.44-2.39a2.39,2.39,0,0,0,2.43,3"/><path class="cls-2" d="M53.39,43.08l-.2-.61c-1.69.43-2.56-2.25-2.56-2.25a2.28,2.28,0,0,0,2.77,2.86"/><path class="cls-2" d="M54.57,40.59c-2,.32-2.85-2-2.85-2a2.29,2.29,0,0,0,1.94,2.72,1.77,1.77,0,0,0,2.6,1.93l-.19-.58a1.31,1.31,0,0,1-1.49-2"/><path class="cls-2" d="M53.36,33.87l0-.65c-2.67-.55-2.44-2.39-2.44-2.39a2.38,2.38,0,0,0,2.43,3"/><polygon class="cls-2" points="36.44 60.78 35.48 62.72 36.2 62.72 37.16 60.78 36.44 60.78"/><polygon class="cls-2" points="37.88 60.78 36.92 62.72 37.65 62.72 38.59 60.78 37.88 60.78"/><polygon class="cls-2" points="43.66 60.78 42.71 62.72 43.42 62.72 44.38 60.78 43.66 60.78"/><polygon class="cls-2" points="45.11 60.78 44.15 62.72 44.87 62.72 45.82 60.78 45.11 60.78"/><polygon class="cls-2" points="42.22 60.78 41.26 62.72 41.98 62.72 42.94 60.78 42.22 60.78"/><polygon class="cls-2" points="50.66 62.72 51.38 62.72 52.33 60.78 51.61 60.78 50.66 62.72"/><polygon class="cls-2" points="39.32 60.78 38.37 62.72 39.09 62.72 40.05 60.78 39.32 60.78"/><polygon class="cls-2" points="40.77 60.78 39.81 62.72 40.54 62.72 41.49 60.78 40.77 60.78"/><path class="cls-2" d="M37.5,50.35a.3.3,0,1,0,.25.3.28.28,0,0,0-.25-.3"/><path class="cls-2" d="M42.78,6.6a10.87,10.87,0,0,1,6.65,2,13.27,13.27,0,0,1,1.72-4.42l-2.39.27L47.51,1.83l-2.4,1.25L42.78.77,40.45,3.08,38,1.83,36.79,4.49l-2.38-.27a13.16,13.16,0,0,1,1.72,4.42,10.87,10.87,0,0,1,6.65-2M37.21,5.55l1.13-2.41,2.11,1.12L42.78,2l2.33,2.3,2.11-1.12,1.13,2.41,1.4-.22a11,11,0,0,0-.88,2.09,12.49,12.49,0,0,0-12.17,0,10.86,10.86,0,0,0-.88-2.09Z"/><path class="cls-2" d="M45.21,1.85a.63.63,0,0,0,.68-.58A4,4,0,0,0,45.43,0s-.76.82-.78,1.17a.63.63,0,0,0,.57.68"/><path class="cls-2" d="M49.13,3.27A.63.63,0,0,0,50,3,3.89,3.89,0,0,0,50,1.65s-1,.45-1.18.76a.64.64,0,0,0,.26.85"/><path class="cls-2" d="M40.33,1.85a.63.63,0,0,0,.58-.68c0-.35-.78-1.17-.78-1.17a4,4,0,0,0-.47,1.27.63.63,0,0,0,.68.58"/><path class="cls-2" d="M36.43,3.27a.63.63,0,0,0,.26-.85c-.16-.31-1.17-.76-1.17-.76A3.88,3.88,0,0,0,35.58,3a.62.62,0,0,0,.85.27"/><path class="cls-2" d="M83.34,24.77a3.38,3.38,0,0,0,1.8-1.83c-2.12-.31-7.75-2.67-12.38-.75C74.49,20.55,76,20.34,76.2,18a1.68,1.68,0,0,0,2.62-.42c-.48-1.41-1.68-.27-1.85-.66s1.52.17,1.9-1.66c-1.37-.47-1.78.65-2,.39s.87-.72.06-2.19c-1.42.83-.68,1.77-1,1.87s-.08-1-1.65-.95c-.15,1.69,1.48,1.74,1.21,2s-.75-1-1.94-.31a1.75,1.75,0,0,0,2.27,1.79c-.18,2.59-2.56,2.11-4.33,5,3.75,1.92,5.44,5.28,7.75,7.59a13.27,13.27,0,0,0,2.07-2.94c2.5,1.94,4.25,0,4.25,0-.86-.88-.89-1.55-2.21-2.75m-3.64.47a4.23,4.23,0,0,1-.45,4.08,17.1,17.1,0,0,0-4.85-6.19c-.34-.22.19-.61,1.14-.73,2.89-.55,6.27.68,7.88,1.1a4.15,4.15,0,0,1-2.12.91,13,13,0,0,1,2.63,2.73c-1.14.28-1.77-.43-4.21-1.9"/><path class="cls-2" d="M42.08,70.76l-1.62-.06-.19.65h.2c.07,0,.07-.13.13-.2a1.51,1.51,0,0,1,.56,0l.68.05c-.4.83-1.45,1.62-1.44,2.17,0,.29.31.36.49.34s.43-.24.52-.6c.2-.82.6-1.45.88-2.39h-.2Z"/><path class="cls-2" d="M43.19,71.73l0-.5h1.41l-.07-.56c-.39,0-1,.14-1.48.14L43,71.9c.65,0,1.08.26,1.08.94,0,.25-.17.73-.46.77a.3.3,0,0,1-.2,0c-.14-.11,0-.22,0-.4a.31.31,0,0,0-.39-.28.33.33,0,0,0-.33.36c0,.4.6.51.85.51.58,0,1.25-.32,1.25-1,0-.86-1-1-1.64-1.06"/><path class="cls-2" d="M46.25,70.6a.9.9,0,0,0-.92.89,1,1,0,0,0,1.52.77c.08.63,0,1.09-.29,1.1s-.18-.15-.21-.28a.32.32,0,0,0-.45-.25.3.3,0,0,0-.21.39c.09.32.49.33.68.3a1.29,1.29,0,0,0,1.18-1.4,1.38,1.38,0,0,0-1.31-1.53m.32,1.57c-.5,0-.57-.78-.57-1.16,0-.11.1-.26.21-.26.46,0,.59,1.06.62,1.37a.75.75,0,0,1-.26.06"/><path class="cls-2" d="M39.31,70.44a6.24,6.24,0,0,1-1.17,1.08l.06.11c.08,0,.21-.11.44-.24l-.44,1.54c0,.08-.13.09-.18.08l-.26,0,0,.18,1.43.26,0-.18-.25-.06a.13.13,0,0,1-.11-.15l.65-2.56Z"/><path class="cls-2" d="M55.63,68.47V65.31a29,29,0,0,1-9.56,2.39l-.18,1.13c.34,0,.77.09,1.35.13a37.79,37.79,0,0,1-4.45.3,37.74,37.74,0,0,1-4.45-.3c.57,0,1-.08,1.34-.13l-.18-1.13a29,29,0,0,1-9.56-2.39v3.16l-3.32,1.36A40.2,40.2,0,0,0,35.16,73l-.38,1.33a29.5,29.5,0,0,0,16,0L50.39,73a40.21,40.21,0,0,0,8.56-3.16ZM28.38,69.91l2.24-.9V66.43a37.59,37.59,0,0,0,6,1.69l-1.27,4.14a37,37,0,0,1-7-2.35m14.4,4.76a30.26,30.26,0,0,1-7.1-.9L37,69.44a30.31,30.31,0,0,0,5.76.48,30.35,30.35,0,0,0,5.76-.48l1.34,4.33a30.39,30.39,0,0,1-7.1.9m7.39-2.42L48.9,68.12a37.63,37.63,0,0,0,6-1.69V69l2.23.9a36.56,36.56,0,0,1-7,2.35"/><path class="cls-2" d="M4.25,27.51a13.33,13.33,0,0,0,2.06,2.94c2.31-2.31,4-5.67,7.75-7.59-1.77-2.92-4.15-2.43-4.33-5A1.76,1.76,0,0,0,12,16c-1.19-.65-1.62.64-1.94.31s1.37-.32,1.21-2c-1.57,0-1.28,1.09-1.65.95s.44-1-1-1.87c-.8,1.48.29,1.95.07,2.19s-.65-.86-2-.39c.37,1.83,2.13,1.13,1.89,1.66s-1.37-.75-1.85.66A1.67,1.67,0,0,0,9.35,18c.15,2.38,1.7,2.57,3.44,4.23-4.63-1.93-10.26.44-12.39.75a3.38,3.38,0,0,0,1.8,1.82C.89,26,.86,26.64,0,27.51c0,0,1.75,1.93,4.25,0m-2.62-.36a12.72,12.72,0,0,1,2.63-2.73,4.2,4.2,0,0,1-2.13-.91c1.61-.43,5-1.65,7.88-1.1.95.13,1.48.52,1.14.73a17.1,17.1,0,0,0-4.86,6.19,4.24,4.24,0,0,1-.45-4.08c-2.44,1.47-3.07,2.19-4.21,1.9"/><path class="cls-2" d="M40.75,25.75v1.39a1.75,1.75,0,0,1,1.41-.47v2a3,3,0,0,1-.38,1.42h2a3,3,0,0,1-.38-1.42v-2a1.74,1.74,0,0,1,1.41.47V25.75H40.75Z"/><line class="cls-1" x1="101.67" y1="30.14" x2="101.67" y2="52.14"/></g></g></svg>